<?xml version="1.0" encoding="UTF-8"?>
<svg version="1.1" xmlns="http://www.w3.org/2000/svg" width="166" height="85">
<path d="M0 0 C1.75450099 0.00866761 3.50901612 0.01480582 5.26353455 0.01853943 C9.8519045 0.03566644 14.43913517 0.08966503 19.02709961 0.15081787 C22.78881821 0.1946518 26.55044647 0.21201142 30.31237125 0.22808933 C34.79164642 0.24763461 39.27081576 0.27819876 43.75 0.3125 C45.03541026 0.3221387 45.03541026 0.3221387 46.34678841 0.33197212 C48.75482285 0.35284873 51.16263666 0.3811342 53.57055664 0.41235352 C54.28995926 0.41818451 55.00936188 0.4240155 55.75056458 0.43002319 C60.6619871 0.5057371 60.6619871 0.5057371 61.77734375 1.62109375 C61.81815158 3.62067739 61.81988731 5.62154629 61.77734375 7.62109375 C60.41670555 7.62656219 60.41670555 7.62656219 59.02857971 7.63214111 C50.45165471 7.67011452 41.87510633 7.72707304 33.29844761 7.80499649 C28.88978722 7.84439156 24.48132417 7.87661888 20.07250977 7.89208984 C15.81231384 7.90730928 11.55266077 7.9418475 7.29270744 7.98940277 C5.67299066 8.00416234 4.05319636 8.01213163 2.43341255 8.0129776 C-10.00188185 7.81168297 -10.00188185 7.81168297 -21.22265625 12.62109375 C-21.55265625 13.28109375 -21.88265625 13.94109375 -22.22265625 14.62109375 C-21.54203125 14.29109375 -20.86140625 13.96109375 -20.16015625 13.62109375 C-14.46425424 11.68206328 -9.73630579 12.46942564 -4.22265625 14.62109375 C-4.22265625 15.28109375 -4.22265625 15.94109375 -4.22265625 16.62109375 C-2.90265625 17.28109375 -1.58265625 17.94109375 -0.22265625 18.62109375 C-0.22265625 19.61109375 -0.22265625 20.60109375 -0.22265625 21.62109375 C-0.88265625 21.62109375 -1.54265625 21.62109375 -2.22265625 21.62109375 C-2.71765625 23.10609375 -2.71765625 23.10609375 -3.22265625 24.62109375 C-3.88265625 24.62109375 -4.54265625 24.62109375 -5.22265625 24.62109375 C-5.22265625 25.28109375 -5.22265625 25.94109375 -5.22265625 26.62109375 C-6.34414063 26.49541016 -6.34414063 26.49541016 -7.48828125 26.3671875 C-8.473125 26.26535156 -9.45796875 26.16351562 -10.47265625 26.05859375 C-11.4471875 25.95417969 -12.42171875 25.84976562 -13.42578125 25.7421875 C-16.15704638 25.48385509 -16.15704638 25.48385509 -18.45703125 26.21875 C-19.33101562 26.41791016 -19.33101562 26.41791016 -20.22265625 26.62109375 C-21.88932292 24.95442708 -23.55598958 23.28776042 -25.22265625 21.62109375 C-25.21821503 22.21800018 -25.2137738 22.81490662 -25.209198 23.42990112 C-25.16505044 29.62625746 -25.13482566 35.82256933 -25.11279297 42.01904297 C-25.10271733 44.33351454 -25.0890565 46.64797334 -25.07177734 48.96240234 C-25.0475976 52.28356068 -25.03618895 55.60455115 -25.02734375 58.92578125 C-25.01702118 59.96540009 -25.00669861 61.00501892 -24.99606323 62.07614136 C-24.99591217 63.03698639 -24.99576111 63.99783142 -24.99560547 64.98779297 C-24.99116425 65.83606659 -24.98672302 66.68434021 -24.98214722 67.55831909 C-25.22265625 69.62109375 -25.22265625 69.62109375 -27.22265625 71.62109375 C-29.66015625 72.05859375 -29.66015625 72.05859375 -32.22265625 71.62109375 C-35.40575574 67.62392838 -35.45917265 64.87864199 -34.93359375 59.90234375 C-34.80974349 58.56283991 -34.68978214 57.22297214 -34.57324219 55.8828125 C-34.51084351 55.18526855 -34.44844482 54.48772461 -34.38415527 53.76904297 C-34.11359236 50.17053575 -34.06493156 46.57204845 -34.01171875 42.96484375 C-33.98329782 41.49608938 -33.95465104 40.02733936 -33.92578125 38.55859375 C-33.88430657 36.32291121 -33.84726576 34.08748259 -33.82128906 31.8515625 C-33.79358278 29.63888135 -33.74781916 27.42715188 -33.69921875 25.21484375 C-33.67939941 23.92255859 -33.65958008 22.63027344 -33.63916016 21.29882812 C-33.17839481 17.2302647 -32.00904896 14.28902221 -30.22265625 10.62109375 C-29.94196793 9.95976944 -29.6612796 9.29844513 -29.37208557 8.61708069 C-23.49025787 -1.59672806 -10.10591388 -0.17274328 0 0 Z M-15.22265625 15.62109375 C-11.22265625 16.62109375 -11.22265625 16.62109375 -11.22265625 16.62109375 Z " fill="#022892" transform="translate(70.22265625,0.37890625)"/>
<path d="M0 0 C0.94875 0.04125 1.8975 0.0825 2.875 0.125 C4.30139623 2.97779245 3.98041495 5.3737358 3.95703125 8.5625 C3.95282669 9.22209717 3.94862213 9.88169434 3.94429016 10.5612793 C3.92757138 12.74929647 3.9019945 14.93708677 3.875 17.125 C3.86708435 17.87620117 3.8591687 18.62740234 3.85101318 19.40136719 C3.79880549 24.16170207 3.71743129 28.92071482 3.61254883 33.68017578 C3.57889191 35.32427535 3.55099394 36.9685019 3.52856445 38.61279297 C3.49491663 41.03400443 3.44273507 43.45421502 3.38671875 45.875 C3.38032883 46.60114502 3.3739389 47.32729004 3.36735535 48.07543945 C3.16048224 55.30584151 0.86620468 60.81178211 -4.125 66.125 C-4.785 66.125 -5.445 66.125 -6.125 66.125 C-6.125 66.785 -6.125 67.445 -6.125 68.125 C-11.22565484 70.63428666 -15.31852734 71.55368047 -21.03222656 71.46557617 C-21.78920837 71.46601425 -22.54619019 71.46645233 -23.32611084 71.46690369 C-25.80621954 71.46482865 -28.28563564 71.44155358 -30.765625 71.41796875 C-32.49720897 71.41236657 -34.22879774 71.40809941 -35.96038818 71.40510559 C-40.50326835 71.39369218 -45.04585737 71.36426411 -49.58862305 71.33099365 C-54.21789635 71.30026839 -58.8472165 71.28658139 -63.4765625 71.27148438 C-71.6012007 71.24281285 -79.72565317 71.19935159 -87.85015869 71.14518738 C-89.94174355 71.13229405 -92.03337541 71.125 -94.125 71.125 C-96.125 71.125 -98.125 71.125 -100.125 71.125 C-100.16754356 69.12545254 -100.16580783 67.12458364 -100.125 65.125 C-99.63 64.63 -99.63 64.63 -99.125 64.125 C-96.79166667 64.125 -94.45833333 64.125 -92.125 64.125 C-91.135 63.63 -91.135 63.63 -90.125 63.125 C-88.37768082 63.01063697 -86.62615544 62.95819319 -84.87524414 62.93554688 C-83.77551773 62.91882935 -82.67579132 62.90211182 -81.54273987 62.8848877 C-80.34398727 62.87131226 -79.14523468 62.85773682 -77.91015625 62.84375 C-76.67067734 62.82534058 -75.43119843 62.80693115 -74.15415955 62.78796387 C-70.16532143 62.72907442 -66.17643879 62.67643831 -62.1875 62.625 C-41.58464977 62.39864557 -41.58464977 62.39864557 -20.99609375 61.65625 C-20.2389357 61.61890747 -19.48177765 61.58156494 -18.70167542 61.54309082 C-15.40724249 61.35480034 -12.28751972 61.10391172 -9.125 60.125 C-9.125 59.465 -9.125 58.805 -9.125 58.125 C-8.465 58.125 -7.805 58.125 -7.125 58.125 C-6.34695089 54.66716305 -5.98931414 51.44900961 -5.95141602 47.9074707 C-5.93792618 46.89324539 -5.92443634 45.87902008 -5.91053772 44.83406067 C-5.90009933 43.75057846 -5.88966095 42.66709625 -5.87890625 41.55078125 C-5.8459936 39.25194895 -5.81278156 36.95312092 -5.77929688 34.65429688 C-5.73171831 31.03314916 -5.68722538 27.41202186 -5.64819336 23.79077148 C-5.60864762 20.29393347 -5.55709094 16.79743459 -5.50390625 13.30078125 C-5.4954921 12.21122635 -5.48707794 11.12167145 -5.47840881 9.99909973 C-5.46176682 8.9943309 -5.44512482 7.98956207 -5.42797852 6.9543457 C-5.41767105 6.06785843 -5.40736359 5.18137115 -5.39674377 4.26802063 C-4.92513318 0.54881406 -3.59267236 0.14370689 0 0 Z " fill="#FC6400" transform="translate(117.125,10.875)"/>
<path d="M0 0 C2.33944736 0.28730055 4.6739143 0.61936779 7 1 C7.36923077 5.55384615 7.36923077 5.55384615 5.5 7.8125 C5.005 8.204375 4.51 8.59625 4 9 C4.99 9.66 5.98 10.32 7 11 C7.928125 10.01 7.928125 10.01 8.875 9 C11 7 11 7 13 7 C13 6.34 13 5.68 13 5 C22.41002278 2.70387244 22.41002278 2.70387244 27 3 C27 5.97 27 8.94 27 12 C24.36 12.33 21.72 12.66 19 13 C19 13.66 19 14.32 19 15 C18.01 15.495 18.01 15.495 17 16 C17.66 17.98 18.32 19.96 19 22 C24.94 22.99 24.94 22.99 31 24 C30.94779297 21.97746094 30.94779297 21.97746094 30.89453125 19.9140625 C30.86639814 18.15105409 30.83909747 16.38803225 30.8125 14.625 C30.78736328 13.73554687 30.76222656 12.84609375 30.73632812 11.9296875 C30.72666016 11.07890625 30.71699219 10.228125 30.70703125 9.3515625 C30.6913208 8.56604004 30.67561035 7.78051758 30.65942383 6.97119141 C30.77181396 6.32069824 30.8842041 5.67020508 31 5 C34 3 34 3 41 3 C41 9.27 41 15.54 41 22 C45.89098109 22.24957916 45.89098109 22.24957916 50.78295898 22.47802734 C52.52765111 22.58045182 54.26528048 22.78742165 56 23 C57.36623674 25.73247348 57.128426 27.98198902 57 31 C54.94624979 33.05375021 50.62656732 32.16407316 47.80078125 32.16796875 C46.55907417 32.17296135 46.55907417 32.17296135 45.2922821 32.17805481 C43.53446001 32.18312981 41.77662824 32.18546296 40.01879883 32.18530273 C37.34114396 32.18747674 34.66390932 32.20559141 31.98632812 32.22460938 C30.27864724 32.22754576 28.5709644 32.22952891 26.86328125 32.23046875 C26.0661824 32.23765427 25.26908356 32.24483978 24.4478302 32.25224304 C19.92885468 32.23387945 16.20464169 31.86314649 12 30 C9.625 27.375 9.625 27.375 8 25 C7.67 27.31 7.34 29.62 7 32 C4.36 32 1.72 32 -1 32 C-1.02465504 27.60343827 -1.04283842 23.2069128 -1.05493164 18.81030273 C-1.05997121 17.31355082 -1.06680287 15.81680384 -1.07543945 14.32006836 C-1.08752159 12.17300193 -1.09323191 10.02600038 -1.09765625 7.87890625 C-1.10289307 6.5854126 -1.10812988 5.29191895 -1.11352539 3.95922852 C-1 1 -1 1 0 0 Z M31 25 C32 27 32 27 32 27 Z " fill="#032890" transform="translate(54,26)"/>
<path d="M0 0 C0 6.27 0 12.54 0 19 C4.89098109 19.24957916 4.89098109 19.24957916 9.78295898 19.47802734 C11.52765111 19.58045182 13.26528048 19.78742165 15 20 C16.36623674 22.73247348 16.128426 24.98198902 16 28 C15 29 15 29 12.59155273 29.11352539 C11.54942627 29.10828857 10.5072998 29.10305176 9.43359375 29.09765625 C8.30888672 29.09443359 7.18417969 29.09121094 6.02539062 29.08789062 C4.84138672 29.07951172 3.65738281 29.07113281 2.4375 29.0625 C1.24962891 29.05798828 0.06175781 29.05347656 -1.16210938 29.04882812 C-4.10812226 29.03699675 -7.05403681 29.02051287 -10 29 C-10.33 27.35 -10.66 25.7 -11 24 C-10.34 24 -9.68 24 -9 24 C-9.33 23.34 -9.66 22.68 -10 22 C-10.26395109 18.67261656 -10.23146278 15.33669992 -10.25 12 C-10.270625 11.071875 -10.29125 10.14375 -10.3125 9.1875 C-10.31765625 8.300625 -10.3228125 7.41375 -10.328125 6.5 C-10.3374707 5.6853125 -10.34681641 4.870625 -10.35644531 4.03125 C-10.18000488 3.02578125 -10.18000488 3.02578125 -10 2 C-7 0 -7 0 0 0 Z " fill="#06288F" transform="translate(95,29)"/>
<path d="M0 0 C0 0.66 0 1.32 0 2 C1.32 2.66 2.64 3.32 4 4 C4 4.99 4 5.98 4 7 C3.34 7 2.68 7 2 7 C1.67 7.99 1.34 8.98 1 10 C0.34 10 -0.32 10 -1 10 C-1 10.66 -1 11.32 -1 12 C-1.74765625 11.91621094 -2.4953125 11.83242188 -3.265625 11.74609375 C-4.25046875 11.64425781 -5.2353125 11.54242188 -6.25 11.4375 C-7.71179688 11.28087891 -7.71179688 11.28087891 -9.203125 11.12109375 C-11.93439013 10.86276134 -11.93439013 10.86276134 -14.234375 11.59765625 C-14.81703125 11.73042969 -15.3996875 11.86320312 -16 12 C-16.66 11.34 -17.32 10.68 -18 10 C-18.53625 9.54625 -19.0725 9.0925 -19.625 8.625 C-21 7 -21 7 -21 3 C-14.57283935 -3.07974656 -8.04810805 -3.14072509 0 0 Z M-11 1 C-7 2 -7 2 -7 2 Z " fill="#010001" transform="translate(66,15)"/>
<path d="M0 0 C0 2.97 0 5.94 0 9 C-2.64 9.33 -5.28 9.66 -8 10 C-8 10.66 -8 11.32 -8 12 C-8.99 12 -9.98 12 -11 12 C-10.72301826 8.02992844 -10.23315777 6.27610788 -7.625 3.1875 C-5.01580298 1.01316915 -3.42271957 0 0 0 Z " fill="#F16104" transform="translate(81,29)"/>
<path d="M0 0 C2.33944736 0.28730055 4.6739143 0.61936779 7 1 C7.125 3.375 7.125 3.375 7 6 C6.34 6.66 5.68 7.32 5 8 C0.44444444 7.44444444 0.44444444 7.44444444 -1 6 C-1.125 3.5 -1.125 3.5 -1 1 C-0.67 0.67 -0.34 0.34 0 0 Z " fill="#E55D08" transform="translate(54,26)"/>
<path d="M0 0 C1.4540625 0.0309375 1.4540625 0.0309375 2.9375 0.0625 C2.9375 2.3725 2.9375 4.6825 2.9375 7.0625 C0.93795254 7.10504356 -1.06291636 7.10330783 -3.0625 7.0625 C-4.0625 6.0625 -4.0625 6.0625 -4.1875 3.5625 C-4.00295237 -0.12845252 -3.76342282 0.07680455 0 0 Z " fill="#F46101" transform="translate(137.0625,0.9375)"/>
<path d="M0 0 C2.5 0.125 2.5 0.125 3.5 1.125 C3.625 3.625 3.625 3.625 3.5 6.125 C2.5 7.125 2.5 7.125 -0.5625 7.1875 C-2.0165625 7.1565625 -2.0165625 7.1565625 -3.5 7.125 C-3.54254356 5.12545254 -3.54080783 3.12458364 -3.5 1.125 C-2.5 0.125 -2.5 0.125 0 0 Z " fill="#08278D" transform="translate(20.5,74.875)"/>
<path d="M0 0 C1.134375 0.020625 2.26875 0.04125 3.4375 0.0625 C3.4375 3.3625 3.4375 6.6625 3.4375 10.0625 C2.86 9.32 2.2825 8.5775 1.6875 7.8125 C-0.28503526 5.40162357 -2.32294282 3.22207299 -4.5625 1.0625 C-3.5625 0.0625 -3.5625 0.0625 0 0 Z " fill="#E75D07" transform="translate(91.5625,28.9375)"/>
<path d="M0 0 C0 0.66 0 1.32 0 2 C-2.64 2.66 -5.28 3.32 -8 4 C-7.67 2.68 -7.34 1.36 -7 0 C-4.3333581 -1.33332095 -2.83319697 -0.67102033 0 0 Z " fill="#130803" transform="translate(58,23)"/>
</svg>
